<mxfile host="app.diagrams.net" modified="2021-07-06T16:18:12.317Z" agent="5.0 (Macintosh; Intel Mac OS X 10_15_6) AppleWebKit/537.36 (KHTML, like Gecko) Chrome/91.0.4472.114 Safari/537.36" etag="gmP0qX-Ih9K1xiql4TBO" version="14.8.4" type="github">
  <diagram id="Y40r3B8HgDiXXdJhaSby" name="Page-1">
    <mxGraphModel dx="2201" dy="763" grid="1" gridSize="10" guides="1" tooltips="1" connect="1" arrows="1" fold="1" page="1" pageScale="1" pageWidth="850" pageHeight="1100" math="0" shadow="0">
      <root>
        <mxCell id="0" />
        <mxCell id="1" parent="0" />
        <mxCell id="J2iUKXydOHswvF2ia5N5-20" value="" style="rounded=0;whiteSpace=wrap;html=1;" vertex="1" parent="1">
          <mxGeometry x="640" y="390" width="160" height="60" as="geometry" />
        </mxCell>
        <mxCell id="J2iUKXydOHswvF2ia5N5-6" value="" style="rounded=0;whiteSpace=wrap;html=1;" vertex="1" parent="1">
          <mxGeometry x="40" y="130" width="240" height="250" as="geometry" />
        </mxCell>
        <mxCell id="J2iUKXydOHswvF2ia5N5-22" style="edgeStyle=orthogonalEdgeStyle;rounded=0;orthogonalLoop=1;jettySize=auto;html=1;entryX=0;entryY=0.5;entryDx=0;entryDy=0;" edge="1" parent="1" source="J2iUKXydOHswvF2ia5N5-3" target="J2iUKXydOHswvF2ia5N5-20">
          <mxGeometry relative="1" as="geometry" />
        </mxCell>
        <mxCell id="J2iUKXydOHswvF2ia5N5-23" value="Subscribe to Topic &lt;br&gt;and show users" style="edgeLabel;html=1;align=center;verticalAlign=middle;resizable=0;points=[];" vertex="1" connectable="0" parent="J2iUKXydOHswvF2ia5N5-22">
          <mxGeometry x="0.101" y="-1" relative="1" as="geometry">
            <mxPoint y="3" as="offset" />
          </mxGeometry>
        </mxCell>
        <mxCell id="J2iUKXydOHswvF2ia5N5-3" value="Amazon IoT Core" style="outlineConnect=0;fontColor=#232F3E;gradientColor=none;strokeColor=#ffffff;fillColor=#232F3E;dashed=0;verticalLabelPosition=middle;verticalAlign=bottom;align=center;html=1;whiteSpace=wrap;fontSize=10;fontStyle=1;spacing=3;shape=mxgraph.aws4.productIcon;prIcon=mxgraph.aws4.iot_core;" vertex="1" parent="1">
          <mxGeometry x="425" y="410" width="100" height="120" as="geometry" />
        </mxCell>
        <mxCell id="J2iUKXydOHswvF2ia5N5-14" style="edgeStyle=orthogonalEdgeStyle;rounded=0;orthogonalLoop=1;jettySize=auto;html=1;entryX=0.996;entryY=0.392;entryDx=0;entryDy=0;entryPerimeter=0;" edge="1" parent="1" source="J2iUKXydOHswvF2ia5N5-5" target="J2iUKXydOHswvF2ia5N5-6">
          <mxGeometry relative="1" as="geometry" />
        </mxCell>
        <mxCell id="J2iUKXydOHswvF2ia5N5-15" value="Deploy components &lt;br&gt;to edge device" style="edgeLabel;html=1;align=center;verticalAlign=middle;resizable=0;points=[];" vertex="1" connectable="0" parent="J2iUKXydOHswvF2ia5N5-14">
          <mxGeometry x="0.6123" y="-1" relative="1" as="geometry">
            <mxPoint x="53" y="-37" as="offset" />
          </mxGeometry>
        </mxCell>
        <mxCell id="J2iUKXydOHswvF2ia5N5-17" style="edgeStyle=orthogonalEdgeStyle;rounded=0;orthogonalLoop=1;jettySize=auto;html=1;" edge="1" parent="1" source="J2iUKXydOHswvF2ia5N5-5" target="J2iUKXydOHswvF2ia5N5-16">
          <mxGeometry relative="1" as="geometry" />
        </mxCell>
        <mxCell id="J2iUKXydOHswvF2ia5N5-18" value="Upload / download&lt;br&gt;artifacts" style="edgeLabel;html=1;align=center;verticalAlign=middle;resizable=0;points=[];" vertex="1" connectable="0" parent="J2iUKXydOHswvF2ia5N5-17">
          <mxGeometry x="0.0246" y="3" relative="1" as="geometry">
            <mxPoint y="1" as="offset" />
          </mxGeometry>
        </mxCell>
        <mxCell id="J2iUKXydOHswvF2ia5N5-5" value="AWS Greengrass" style="outlineConnect=0;fontColor=#232F3E;gradientColor=none;strokeColor=#ffffff;fillColor=#232F3E;dashed=0;verticalLabelPosition=middle;verticalAlign=bottom;align=center;html=1;whiteSpace=wrap;fontSize=10;fontStyle=1;spacing=3;shape=mxgraph.aws4.productIcon;prIcon=mxgraph.aws4.greengrass;" vertex="1" parent="1">
          <mxGeometry x="510" y="100" width="95" height="120" as="geometry" />
        </mxCell>
        <mxCell id="J2iUKXydOHswvF2ia5N5-7" value="" style="shape=image;html=1;verticalAlign=top;verticalLabelPosition=bottom;labelBackgroundColor=#ffffff;imageAspect=0;aspect=fixed;image=https://cdn4.iconfinder.com/data/icons/logos-and-brands/512/272_Raspberry_Pi_logo-128.png" vertex="1" parent="1">
          <mxGeometry x="50" y="145" width="50" height="50" as="geometry" />
        </mxCell>
        <mxCell id="J2iUKXydOHswvF2ia5N5-9" value="Raspberry Pi" style="text;html=1;strokeColor=none;fillColor=none;align=center;verticalAlign=middle;whiteSpace=wrap;rounded=0;" vertex="1" parent="1">
          <mxGeometry x="100" y="160" width="85" height="20" as="geometry" />
        </mxCell>
        <mxCell id="J2iUKXydOHswvF2ia5N5-10" value="&lt;font style=&quot;font-size: 8px&quot;&gt;&lt;span style=&quot;font-weight: normal&quot;&gt;AWS Greengrass &lt;/span&gt;Core Software&lt;/font&gt;" style="outlineConnect=0;fontColor=#232F3E;gradientColor=none;strokeColor=#ffffff;fillColor=#232F3E;dashed=0;verticalLabelPosition=middle;verticalAlign=bottom;align=center;html=1;whiteSpace=wrap;fontSize=10;fontStyle=1;spacing=3;shape=mxgraph.aws4.productIcon;prIcon=mxgraph.aws4.greengrass;" vertex="1" parent="1">
          <mxGeometry x="200" y="240" width="70" height="100" as="geometry" />
        </mxCell>
        <mxCell id="J2iUKXydOHswvF2ia5N5-28" style="edgeStyle=orthogonalEdgeStyle;rounded=0;orthogonalLoop=1;jettySize=auto;html=1;fontSize=5;" edge="1" parent="1" source="J2iUKXydOHswvF2ia5N5-11" target="J2iUKXydOHswvF2ia5N5-10">
          <mxGeometry relative="1" as="geometry" />
        </mxCell>
        <mxCell id="J2iUKXydOHswvF2ia5N5-29" value="Component runs&lt;br&gt;&amp;nbsp;on top of this" style="edgeLabel;html=1;align=center;verticalAlign=middle;resizable=0;points=[];fontSize=5;" vertex="1" connectable="0" parent="J2iUKXydOHswvF2ia5N5-28">
          <mxGeometry x="-0.1861" y="-2" relative="1" as="geometry">
            <mxPoint as="offset" />
          </mxGeometry>
        </mxCell>
        <mxCell id="J2iUKXydOHswvF2ia5N5-11" value="&lt;font style=&quot;font-size: 5px;&quot;&gt;&lt;b style=&quot;font-size: 5px;&quot;&gt;DLR Object Detection Component&lt;/b&gt;&lt;br style=&quot;font-size: 5px;&quot;&gt;&lt;br style=&quot;font-size: 5px;&quot;&gt;Runs model to detect objects from captured image&lt;br style=&quot;font-size: 5px;&quot;&gt;&lt;/font&gt;" style="ellipse;whiteSpace=wrap;html=1;aspect=fixed;fontSize=5;" vertex="1" parent="1">
          <mxGeometry x="70" y="230" width="75" height="75" as="geometry" />
        </mxCell>
        <mxCell id="J2iUKXydOHswvF2ia5N5-12" value="" style="endArrow=none;html=1;exitX=0.5;exitY=1;exitDx=0;exitDy=0;" edge="1" parent="1" source="J2iUKXydOHswvF2ia5N5-11" target="J2iUKXydOHswvF2ia5N5-3">
          <mxGeometry width="50" height="50" relative="1" as="geometry">
            <mxPoint x="90" y="340" as="sourcePoint" />
            <mxPoint x="140" y="290" as="targetPoint" />
            <Array as="points">
              <mxPoint x="110" y="469" />
            </Array>
          </mxGeometry>
        </mxCell>
        <mxCell id="J2iUKXydOHswvF2ia5N5-13" value="Publish Predictions to Topic" style="edgeLabel;html=1;align=center;verticalAlign=middle;resizable=0;points=[];" vertex="1" connectable="0" parent="J2iUKXydOHswvF2ia5N5-12">
          <mxGeometry x="0.2915" y="-5" relative="1" as="geometry">
            <mxPoint y="-4" as="offset" />
          </mxGeometry>
        </mxCell>
        <mxCell id="J2iUKXydOHswvF2ia5N5-16" value="Amazon S3" style="outlineConnect=0;fontColor=#232F3E;gradientColor=none;strokeColor=#ffffff;fillColor=#232F3E;dashed=0;verticalLabelPosition=middle;verticalAlign=bottom;align=center;html=1;whiteSpace=wrap;fontSize=10;fontStyle=1;spacing=3;shape=mxgraph.aws4.productIcon;prIcon=mxgraph.aws4.s3;" vertex="1" parent="1">
          <mxGeometry x="730" y="110" width="80" height="100" as="geometry" />
        </mxCell>
        <mxCell id="J2iUKXydOHswvF2ia5N5-19" value="" style="shape=image;html=1;verticalAlign=top;verticalLabelPosition=bottom;labelBackgroundColor=#ffffff;imageAspect=0;aspect=fixed;image=https://cdn4.iconfinder.com/data/icons/logos-3/600/React.js_logo-128.png" vertex="1" parent="1">
          <mxGeometry x="650" y="400" width="40" height="40" as="geometry" />
        </mxCell>
        <mxCell id="J2iUKXydOHswvF2ia5N5-21" value="&lt;br&gt;React Website" style="edgeLabel;html=1;align=center;verticalAlign=middle;resizable=0;points=[];" vertex="1" connectable="0" parent="1">
          <mxGeometry x="739.9966666666664" y="410" as="geometry" />
        </mxCell>
        <mxCell id="J2iUKXydOHswvF2ia5N5-26" style="edgeStyle=orthogonalEdgeStyle;rounded=0;orthogonalLoop=1;jettySize=auto;html=1;" edge="1" parent="1" source="J2iUKXydOHswvF2ia5N5-25" target="J2iUKXydOHswvF2ia5N5-11">
          <mxGeometry relative="1" as="geometry" />
        </mxCell>
        <mxCell id="J2iUKXydOHswvF2ia5N5-27" value="Capture image" style="edgeLabel;html=1;align=center;verticalAlign=middle;resizable=0;points=[];" vertex="1" connectable="0" parent="J2iUKXydOHswvF2ia5N5-26">
          <mxGeometry x="-0.12" y="3" relative="1" as="geometry">
            <mxPoint as="offset" />
          </mxGeometry>
        </mxCell>
        <mxCell id="J2iUKXydOHswvF2ia5N5-25" value="" style="shape=image;html=1;verticalAlign=top;verticalLabelPosition=bottom;labelBackgroundColor=#ffffff;imageAspect=0;aspect=fixed;image=https://cdn4.iconfinder.com/data/icons/ionicons/512/icon-camera-128.png" vertex="1" parent="1">
          <mxGeometry x="-120" y="216" width="78" height="78" as="geometry" />
        </mxCell>
      </root>
    </mxGraphModel>
  </diagram>
</mxfile>
